<svg xmlns="http://www.w3.org/2000/svg" xmlns:xlink="http://www.w3.org/1999/xlink" width="104" height="99" viewBox="0 0 104 99">
    <defs>
        <path id="a" d="M14.56 1.027C6.84 1.027.58 7.287.58 15.01V49.01c0 7.722 6.26 13.982 13.982 13.982h34c7.721 0 13.981-6.26 13.981-13.982v-34c0-7.724-6.26-13.983-13.982-13.983h-34z"/>
        <path id="c" d="M14.56 1.027C6.84 1.027.58 7.287.58 15.01V49.01c0 7.722 6.26 13.982 13.982 13.982h34c7.721 0 13.981-6.26 13.981-13.982v-34c0-7.724-6.26-13.983-13.982-13.983h-34z"/>
        <path id="e" d="M14.56 1.027C6.84 1.027.58 7.287.58 15.01V49.01c0 7.722 6.26 13.982 13.982 13.982h34c7.721 0 13.981-6.26 13.981-13.982v-34c0-7.724-6.26-13.983-13.982-13.983h-34z"/>
        <path id="g" d="M14.56 1.027C6.84 1.027.58 7.287.58 15.01V49.01c0 7.722 6.26 13.982 13.982 13.982h34c7.721 0 13.981-6.26 13.981-13.982v-34c0-7.724-6.26-13.983-13.982-13.983h-34z"/>
        <path id="i" d="M14.56 1.027C6.84 1.027.58 7.287.58 15.01V49.01c0 7.722 6.26 13.982 13.982 13.982h34c7.721 0 13.981-6.26 13.981-13.982v-34c0-7.724-6.26-13.983-13.982-13.983h-34z"/>
        <path id="k" d="M14.56 1.027C6.84 1.027.58 7.287.58 15.01V49.01c0 7.722 6.26 13.982 13.982 13.982h34c7.721 0 13.981-6.26 13.981-13.982v-34c0-7.724-6.26-13.983-13.982-13.983h-34z"/>
        <path id="m" d="M14.56 1.027C6.84 1.027.58 7.287.58 15.01V49.01c0 7.722 6.26 13.982 13.982 13.982h34c7.721 0 13.981-6.26 13.981-13.982v-34c0-7.724-6.26-13.983-13.982-13.983h-34z"/>
        <path id="o" d="M14.56 1.027C6.84 1.027.58 7.287.58 15.01V49.01c0 7.722 6.26 13.982 13.982 13.982h34c7.721 0 13.981-6.26 13.981-13.982v-34c0-7.724-6.26-13.983-13.982-13.983h-34z"/>
        <path id="q" d="M14.56 1.027C6.84 1.027.58 7.287.58 15.01V49.01c0 7.722 6.26 13.982 13.982 13.982h34c7.721 0 13.981-6.26 13.981-13.982v-34c0-7.724-6.26-13.983-13.982-13.983h-34z"/>
        <path id="s" d="M14.56 1.027C6.84 1.027.58 7.287.58 15.01V49.01c0 7.722 6.26 13.982 13.982 13.982h34c7.721 0 13.981-6.26 13.981-13.982v-34c0-7.724-6.26-13.983-13.982-13.983h-34z"/>
    </defs>
    <g fill="none" fill-rule="evenodd">
        <g fill="#2AAFB6" fill-rule="nonzero">
            <path d="M.416 98.626V80.382h7.946c.9 0 1.733.184 2.494.554a6.447 6.447 0 0 1 1.963 1.438 6.79 6.79 0 0 1 1.286 2.028c.312.762.465 1.53.465 2.3a6.46 6.46 0 0 1-.44 2.35 6.578 6.578 0 0 1-1.232 2.029 5.884 5.884 0 0 1-1.922 1.412 5.79 5.79 0 0 1-2.48.527H5.48v5.602H.416v.004zm5.065-9.968h2.678c.312 0 .599-.14.868-.423.266-.284.404-.792.404-1.53 0-.754-.157-1.267-.47-1.541-.313-.275-.623-.411-.936-.411H5.481v3.905zM16.518 98.626V80.382h5.065v13.875h7.96l-1.656 4.369zM29.997 98.626l6.882-18.244h4.105l6.855 18.244H42.49l-1.117-3.57h-4.91l-1.088 3.57h-5.378zM38.93 85.6l-1.714 6.113h3.35l-1.636-6.113zM51.088 80.384l3.298 7.887 3.375-7.887h5.51L56.906 92.59v6.038h-5.039V92.54l-6.26-12.154h5.48zM78.8 98.626v-9.609l-3.091 6.759h-2.7l-3.091-6.759v9.609h-5.063V80.382h5.53l3.973 8.584 4-8.584h5.509v18.244zM94.85 98.78c-1.319 0-2.515-.267-3.599-.796a8.992 8.992 0 0 1-2.778-2.096 9.41 9.41 0 0 1-1.79-2.967 9.545 9.545 0 0 1-.637-3.443c0-1.2.219-2.355.663-3.469a9.108 9.108 0 0 1 4.676-4.97c1.08-.503 2.27-.758 3.57-.758 1.315 0 2.513.266 3.597.798a8.84 8.84 0 0 1 2.779 2.106 9.395 9.395 0 0 1 1.777 2.98 9.72 9.72 0 0 1 .623 3.419c0 1.198-.22 2.35-.662 3.456a9.383 9.383 0 0 1-1.832 2.928 8.851 8.851 0 0 1-2.805 2.042c-1.088.512-2.284.77-3.583.77zm-3.662-9.25c0 .616.072 1.213.223 1.786a4.61 4.61 0 0 0 .686 1.53c.31.445.7.804 1.17 1.078.465.273 1.012.41 1.635.41.64 0 1.196-.141 1.661-.423a3.48 3.48 0 0 0 1.143-1.107c.296-.452.514-.97.663-1.555a7.23 7.23 0 0 0 .223-1.77c0-.617-.079-1.214-.234-1.787a4.865 4.865 0 0 0-.687-1.514 3.49 3.49 0 0 0-1.156-1.053c-.468-.266-1.012-.4-1.635-.4-.64 0-1.191.136-1.65.41-.46.275-.84.639-1.142 1.093a4.985 4.985 0 0 0-.675 1.542 6.81 6.81 0 0 0-.225 1.76z"/>
        </g>
        <path d="M16-5h72v72H16z"/>
        <path fill="#2AAFB6" fill-rule="nonzero" d="M69.06 62.492h-34c-7.721 0-13.981-6.26-13.981-13.982v-34c0-7.723 6.26-13.983 13.982-13.983h34c7.721 0 13.981 6.26 13.981 13.982V48.51c.002 7.722-6.26 13.982-13.982 13.982"/>
        <path fill="#FFF" fill-rule="nonzero" d="M52.06 50.175c-11.27 0-20.439-9.168-20.439-20.438a1.084 1.084 0 0 1 2.167 0c0 10.075 8.198 18.272 18.272 18.272 10.075 0 18.272-8.197 18.272-18.272a1.083 1.083 0 1 1 2.166 0c0 11.27-9.168 20.438-20.438 20.438"/>
        <g transform="translate(20.5 -.5)">
            <mask id="b" fill="#fff">
                <use xlink:href="#a"/>
            </mask>
            <path fill="#E7E7E6" fill-rule="nonzero" d="M.549 11.178h62.023L51.714-7.382H10.866z" mask="url(#b)"/>
        </g>
        <g transform="translate(20.5 -.5)">
            <mask id="d" fill="#fff">
                <use xlink:href="#c"/>
            </mask>
            <path fill="#D44C3A" fill-rule="nonzero" d="M10.926 11.178h10.317l3.598-18.56h-6.716z" mask="url(#d)"/>
        </g>
        <g transform="translate(20.5 -.5)">
            <mask id="f" fill="#fff">
                <use xlink:href="#e"/>
            </mask>
            <path fill="#C6C8C8" fill-rule="nonzero" d="M5.759 20.955h-.103c-2.821 0-5.108-2.168-5.108-4.84v-4.937h10.318v4.937c0 2.673-2.286 4.84-5.107 4.84" mask="url(#f)"/>
        </g>
        <g transform="translate(20.5 -.5)">
            <mask id="h" fill="#fff">
                <use xlink:href="#g"/>
            </mask>
            <path fill="#BD3226" fill-rule="nonzero" d="M16.136 20.955h-.103c-2.821 0-5.108-2.168-5.108-4.84v-4.937h10.318v4.937c0 2.673-2.286 4.84-5.107 4.84" mask="url(#h)"/>
        </g>
        <g transform="translate(20.5 -.5)">
            <mask id="j" fill="#fff">
                <use xlink:href="#i"/>
            </mask>
            <path fill="#C6C8C8" fill-rule="nonzero" d="M26.454 20.955h-.103c-2.821 0-5.108-2.168-5.108-4.84v-4.937H31.56v4.937c0 2.673-2.286 4.84-5.106 4.84" mask="url(#j)"/>
        </g>
        <g transform="translate(20.5 -.5)">
            <mask id="l" fill="#fff">
                <use xlink:href="#k"/>
            </mask>
            <path fill="#D44C3A" fill-rule="nonzero" d="M41.877 11.178H31.559v-18.56h6.72z" mask="url(#l)"/>
        </g>
        <g transform="translate(20.5 -.5)">
            <mask id="n" fill="#fff">
                <use xlink:href="#m"/>
            </mask>
            <path fill="#D44C3A" fill-rule="nonzero" d="M62.572 11.178H52.254l-7.257-18.56h6.717z" mask="url(#n)"/>
        </g>
        <g transform="translate(20.5 -.5)">
            <mask id="p" fill="#fff">
                <use xlink:href="#o"/>
            </mask>
            <path fill="#BD3226" fill-rule="nonzero" d="M57.36 20.955h.104c2.82 0 5.108-2.168 5.108-4.84v-4.937H52.255v4.937c0 2.673 2.285 4.84 5.106 4.84" mask="url(#p)"/>
        </g>
        <g transform="translate(20.5 -.5)">
            <mask id="r" fill="#fff">
                <use xlink:href="#q"/>
            </mask>
            <path fill="#C6C8C8" fill-rule="nonzero" d="M46.984 20.955h.103c2.82 0 5.108-2.168 5.108-4.84v-4.937H41.877v4.937c0 2.673 2.287 4.84 5.107 4.84" mask="url(#r)"/>
        </g>
        <g transform="translate(20.5 -.5)">
            <mask id="t" fill="#fff">
                <use xlink:href="#s"/>
            </mask>
            <path fill="#BD3226" fill-rule="nonzero" d="M36.667 20.955h.103c2.821 0 5.107-2.168 5.107-4.84v-4.937H31.56v4.937c0 2.673 2.286 4.84 5.107 4.84" mask="url(#t)"/>
        </g>
    </g>
</svg>
